{"title":"I Love Dick S01E00 Pilot 1080p AMZN WEBRip HEVC DD5.1 x265","uid":15600655,"size":508127022,"categoryP":"video","categoryS":"hd___tv_shows","magnet":"?xt=urn:btih:99f20f50c3688fd33c7af72445a98a1b143c02c3&amp;dn=I+Love+Dick+S01E00+Pilot+1080p+AMZN+WEBRip+HEVC+DD5.1+x265&amp;tr=udp%3A%2F%2Ftracker.leechers-paradise.org%3A6969&amp;tr=udp%3A%2F%2Fzer0day.ch%3A1337&amp;tr=udp%3A%2F%2Fopen.demonii.com%3A1337&amp;tr=udp%3A%2F%2Ftracker.coppersurfer.tk%3A6969&amp;tr=udp%3A%2F%2Fexodus.desync.com%3A6969","seeders":7,"leechers":2,"uploader":"nayhtut","files":1,"time":1471637300,"description":"[Screenshots]\r\n \nhttps://s4.postimg.org/kdxqvdbvh/Love_Dick_S01_E00_Pilot_1080p_AMZN_WEBRip_HEVC_DD.jpg \nhttps://s4.postimg.org/giucssspp/Love_Dick_S01_E00_Pilot_1080p_AMZN_WEBRip_HEVC_DD.jpg \nhttps://s4.postimg.org/hmeh4rdct/Love_Dick_S01_E00_Pilot_1080p_AMZN_WEBRip_HEVC_DD.jpg\r\n\r\n\r\nSource:  Love Dick S01E00 Pilot 1080p AMZN WEBRip DD5.1 x264-RTN (1.31 GB)\r\n\r\n\r\n__--__--__--__--__--__--__--__--__--__--__--__--__--\r\n\r\n\r\nComplete name                            : Love.Dick.S01E00.Pilot.1080p.AMZN.WEBRip.HEVC.DD5.1.x265.mkv\r\nFormat                                   : Matroska\r\nFormat version                           : Version 4 / Version 2\r\nFile size                                : 485 MiB\r\nDuration                                 : 32mn 58s\r\nOverall bit rate                         : 2 055 Kbps\r\nWriting application                      : Lavf57.25.100\r\nWriting library                          : Lavf57.25.100\r\n\r\nVideo\r\n\r\nID                                       : 1\r\nFormat                                   : V_MPEGH/ISO/HEVC\r\nCodec ID                                 : V_MPEGH/ISO/HEVC\r\nDuration                                 : 32mn 58s\r\nBit rate                                 : 1 630 Kbps\r\nWidth                                    : 1 920 pixels\r\nHeight                                   : 960 pixels\r\nDisplay aspect ratio                     : 2.000\r\nFrame rate                               : 25.000 fps\r\nBits/(Pixel*Frame)                       : 0.035\r\nStream size                              : 384 MiB (79%)\r\nWriting library                          : Lavc57.48.101 libx265\r\nLanguage                                 : English\r\nDefault                                  : Yes\r\nForced                                   : No\r\nDURATION                                 : 00:32:58.531000000\r\n\r\nAudio\r\n\r\nID                                       : 2\r\nFormat                                   : AC-3\r\nFormat/Info                              : Audio Coding 3\r\nMode extension                           : CM (complete main)\r\nFormat settings, Endianness              : Big\r\nCodec ID                                 : A_AC3\r\nDuration                                 : 32mn 58s\r\nBit rate mode                            : Constant\r\nBit rate                                 : 384 Kbps\r\nChannel(s)                               : 6 channels\r\nChannel positions                        : Front: L C R, Side: L R, LFE\r\nSampling rate                            : 48.0 KHz\r\nBit depth                                : 16 bits\r\nCompression mode                         : Lossy\r\nStream size                              : 90.6 MiB (19%)\r\nWriting library                          : Lavc57.24.102 ac3\r\nLanguage                                 : English\r\nDefault                                  : Yes\r\nForced                                   : No\r\nDURATION                                 : 00:32:58.495000000\r\n\r\nText\r\n\r\nID                                       : 3\r\nFormat                                   : ASS\r\nCodec ID                                 : S_TEXT/ASS\r\nCodec ID/Info                            : Advanced Sub Station Alpha\r\nCompression mode                         : Lossless\r\nWriting library                          : Lavc57.48.101 ssa\r\nLanguage                                 : English\r\nDefault                                  : No\r\nForced                                   : No\r\nDURATION                                 : 00:32:34.204000000\r\n\r\n__--__--__--__--__--__--__--__--__--__--__--__--__--\r\n\r\n\r\nIMDb: http://www.imdb.com/title/tt5478730\r\n\r\nAfter adding torrent with magnet link,\r\n\r\nplease add this  following trackers list to the torrent for better seeds.\r\n\r\n\r\nudp://tracker.coppersurfer.tk:6969/announce\r\n\r\nudp://tracker.opentrackr.org:1337/announce\r\n \nhttp://tracker.baravik.org:6970/announce\r\n \nhttp://tracker2.wasabii.com.tw:6969/announce\r\n\r\nudp://9.rarbg.me:2710/announce\r\n\r\n__--__--__--__--__--__--__--__--__--__--__--__--__--\r\n\r\n\r\n\r\nEnjoy!","torrent":{"xt":"urn:btih:99f20f50c3688fd33c7af72445a98a1b143c02c3","amp;dn":"I+Love+Dick+S01E00+Pilot+1080p+AMZN+WEBRip+HEVC+DD5.1+x265","amp;tr":["udp%3A%2F%2Ftracker.leechers-paradise.org%3A6969","udp%3A%2F%2Fzer0day.ch%3A1337","udp%3A%2F%2Fopen.demonii.com%3A1337","udp%3A%2F%2Ftracker.coppersurfer.tk%3A6969","udp%3A%2F%2Fexodus.desync.com%3A6969"],"infoHash":"99f20f50c3688fd33c7af72445a98a1b143c02c3","infoHashBuffer":{"type":"Buffer","data":[153,242,15,80,195,104,143,211,60,122,247,36,69,169,138,27,20,60,2,195]},"announce":[],"urlList":[]}}